<?xml version="1.0" standalone="no"?>
<!DOCTYPE svg PUBLIC "-//W3C//DTD SVG 20010904//EN"
 "http://www.w3.org/TR/2001/REC-SVG-20010904/DTD/svg10.dtd">
<svg version="1.0" xmlns="http://www.w3.org/2000/svg"
 width="3000.000000pt" height="3000.000000pt" viewBox="0 0 3000.000000 3000.000000"
 preserveAspectRatio="xMidYMid meet">
<metadata>
Created by potrace 1.11, written by Peter Selinger 2001-2013
</metadata>
<g transform="translate(0.000000,3000.000000) scale(0.100000,-0.100000)"
fill="#000000" stroke="none">
<path d="M10667 24831 c-23 -21 -51 -40 -62 -42 -19 -4 -20 -12 -20 -229 1
-124 5 -274 9 -335 5 -60 10 -126 11 -145 3 -34 11 -109 21 -200 2 -25 7 -65
10 -90 2 -25 7 -58 9 -75 2 -16 7 -55 10 -86 3 -31 7 -65 9 -75 2 -11 7 -50
11 -87 3 -37 8 -76 10 -85 1 -9 6 -44 9 -77 4 -33 8 -71 11 -85 2 -14 7 -56
10 -95 7 -77 11 -96 50 -239 15 -54 28 -112 30 -128 2 -16 6 -32 9 -36 2 -4 7
-28 11 -52 3 -25 10 -61 15 -80 5 -19 11 -53 14 -75 3 -22 8 -51 11 -65 3 -14
8 -40 11 -59 3 -18 8 -43 10 -55 2 -11 7 -37 10 -56 3 -19 14 -84 24 -145 10
-60 21 -128 25 -150 5 -37 12 -79 21 -130 2 -11 7 -40 10 -65 3 -25 8 -54 10
-65 4 -18 46 -301 59 -392 9 -63 13 -94 20 -168 4 -38 9 -77 10 -85 2 -8 8
-51 15 -95 37 -251 114 -457 209 -559 25 -27 67 -72 93 -99 l46 -50 20 40 c11
21 28 45 36 52 14 12 16 10 17 -15 2 -69 19 -109 70 -162 65 -68 108 -62 219
31 60 50 86 66 130 75 30 7 62 20 72 29 17 15 18 15 18 -9 0 -42 12 -88 22
-88 6 0 7 15 3 38 -22 109 2 121 34 17 12 -41 27 -75 31 -75 13 0 23 40 24
100 1 56 11 84 26 75 4 -3 2 -28 -5 -55 -16 -62 -10 -92 19 -88 16 2 20 9 18
28 -2 22 0 20 21 -13 13 -21 35 -49 47 -62 38 -41 95 -30 125 23 15 27 15 27
14 -23 0 -27 0 -63 1 -80 l2 -30 8 30 c6 24 8 26 9 8 1 -28 27 -30 36 -3 4 11
10 18 14 16 14 -9 68 56 119 142 54 91 55 94 38 278 -4 38 -9 96 -11 129 -8
106 -16 195 -29 300 -3 22 -8 65 -11 95 -4 30 -8 66 -10 80 -2 14 -6 47 -10
75 -7 58 -8 60 -31 47 -25 -14 -53 -3 -60 24 -3 13 2 53 11 88 21 78 15 116
-20 116 -27 0 -27 6 1 115 18 68 15 102 -21 240 -15 55 -32 119 -38 143 -8 34
-14 41 -28 37 -26 -9 -36 19 -38 104 -3 83 -14 121 -36 121 -15 0 -23 24 -23
70 0 21 -62 173 -164 399 -45 99 -190 437 -233 540 -25 61 -70 149 -101 196
-84 129 -93 162 -93 340 0 83 0 157 0 166 -1 12 -15 18 -50 23 -38 5 -68 19
-128 62 -43 31 -80 59 -83 63 -18 23 -98 54 -142 55 l-49 1 -4 60 c-4 67 -18
113 -37 120 -7 2 -37 6 -66 9 -67 8 -162 39 -211 71 -55 34 -124 109 -150 161
-24 47 -24 62 -5 192 6 41 -6 72 -27 72 -5 0 -28 -17 -52 -39z"/>
<path d="M24075 22203 c-61 -89 -347 -476 -372 -503 -7 -8 -93 -116 -190 -240
-98 -124 -180 -227 -183 -230 -3 -3 -46 -54 -95 -115 -193 -237 -700 -836
-801 -945 -23 -25 -55 -61 -70 -80 -16 -19 -36 -42 -44 -50 -8 -9 -40 -45 -70
-80 -68 -78 -158 -179 -244 -273 -101 -111 -189 -209 -217 -242 -19 -22 -41
-47 -50 -55 -9 -8 -61 -64 -114 -125 -80 -89 -207 -231 -260 -289 -21 -24
-163 -183 -191 -215 -16 -18 -38 -43 -49 -55 -11 -13 -51 -58 -90 -101 -38
-44 -92 -104 -120 -135 -27 -30 -57 -64 -67 -75 -9 -11 -25 -29 -35 -41 -10
-12 -48 -54 -84 -95 -67 -75 -281 -316 -393 -443 -34 -39 -80 -90 -103 -115
-24 -25 -43 -49 -43 -53 0 -5 -4 -8 -10 -8 -6 0 -7 22 -4 55 4 30 2 55 -2 56
-5 0 -17 2 -26 4 -33 6 -208 20 -373 30 -240 14 -782 21 -865 11 -19 -2 -75
-7 -125 -10 -49 -3 -101 -8 -115 -10 -14 -3 -47 -8 -75 -11 -117 -15 -168 -23
-205 -30 -13 -3 -42 -7 -64 -11 -22 -3 -43 -7 -46 -9 -3 -2 -26 -6 -50 -10
-44 -6 -401 -95 -464 -114 -492 -157 -840 -304 -1185 -503 -108 -62 -272 -165
-281 -177 -3 -3 -34 -26 -70 -50 -153 -105 -378 -305 -489 -436 -250 -296
-352 -571 -317 -855 10 -85 45 -268 66 -350 5 -19 11 -46 14 -60 2 -14 14 -65
26 -115 25 -105 28 -117 36 -147 3 -13 7 -33 10 -46 2 -12 13 -59 24 -105 11
-45 22 -100 25 -122 9 -59 34 -142 62 -205 22 -50 100 -188 113 -200 3 -3 25
-32 49 -64 47 -63 234 -256 315 -324 l48 -42 27 19 c36 25 87 41 131 41 50 0
144 -49 203 -106 l47 -46 -82 -50 c-246 -150 -217 -125 -304 -260 -44 -68 -93
-144 -109 -170 -16 -26 -46 -56 -66 -68 -69 -38 -272 -195 -419 -324 -181
-158 -636 -603 -929 -909 -46 -48 -85 -87 -88 -87 -2 0 -53 50 -114 110 -60
61 -115 110 -122 110 -13 0 -114 -78 -181 -140 -79 -72 -187 -231 -205 -300
-45 -171 -43 -268 5 -382 9 -20 15 -41 13 -46 -2 -5 -53 -62 -114 -127 -60
-64 -130 -138 -154 -163 -297 -318 -458 -486 -663 -695 l-147 -149 -32 25 -32
25 -74 -92 c-41 -50 -82 -100 -91 -111 -172 -203 -1169 -1467 -1506 -1910 -92
-121 -173 -227 -179 -235 -43 -55 -215 -293 -274 -380 -203 -302 -407 -660
-505 -890 -11 -25 -26 -58 -33 -75 -20 -41 -72 -202 -80 -245 -3 -20 -30 -67
-59 -105 -124 -166 -249 -332 -272 -361 -13 -18 -53 -71 -89 -119 l-64 -88 1
-126 c1 -170 18 -205 100 -203 43 1 215 88 226 115 2 4 8 7 13 7 21 0 187 162
558 546 139 143 614 629 1094 1117 99 100 483 490 855 865 373 376 769 777
882 892 718 728 1177 1194 1298 1319 99 101 144 141 154 135 7 -4 31 -25 53
-45 207 -193 486 -372 630 -405 54 -12 253 4 385 31 14 2 61 12 105 21 44 8
107 22 140 31 33 8 67 17 75 19 8 2 33 8 55 14 22 6 58 15 80 21 22 5 51 13
65 18 14 5 72 24 130 41 125 38 217 69 324 108 l80 29 2 49 c10 194 97 283
269 276 68 -3 102 -10 235 -53 l95 -31 110 52 c588 276 1028 549 1375 855 72
63 240 238 282 293 67 89 55 84 156 62 49 -11 97 -22 106 -26 10 -4 17 -1 18
7 2 25 5 63 12 164 4 55 9 118 11 140 2 22 7 81 10 130 4 50 8 106 10 125 2
19 6 82 10 140 4 58 8 119 11 135 12 91 11 306 -2 380 -32 173 -119 390 -236
583 -56 92 -201 288 -266 360 l-40 43 -69 -44 -70 -45 -63 65 c-77 78 -217
192 -325 263 -44 29 -83 56 -88 60 -8 7 3 21 81 105 49 53 119 130 192 210 25
28 94 104 154 170 60 66 126 138 146 160 258 285 908 1016 920 1036 3 4 30 15
60 22 294 78 612 277 748 470 62 87 87 155 87 232 -1 76 -14 111 -60 157 -33
33 -28 56 24 114 38 42 80 93 177 209 32 39 61 72 64 75 8 7 311 374 491 595
203 249 498 617 664 831 17 21 50 64 75 95 178 226 430 562 430 575 0 7 3 14
8 16 11 5 452 728 452 743 0 2 23 42 50 90 65 112 247 453 284 530 7 17 43 91
79 165 103 215 190 415 243 560 24 65 24 65 -29 -4 -12 -16 -26 -34 -32 -40
-5 -6 -44 -51 -85 -101 -108 -130 -298 -327 -337 -349 -8 -4 124 176 293 400
l309 409 37 145 c21 80 40 163 44 185 3 22 7 42 9 45 3 5 29 155 39 230 3 19
8 66 11 105 4 38 9 73 11 77 3 5 2 8 -3 8 -4 -1 -35 -40 -68 -87z m-1196
-1745 c-24 -46 -99 -154 -131 -189 -18 -21 -69 -76 -113 -125 -98 -106 -84
-91 -180 -199 -44 -49 -87 -96 -95 -105 -8 -9 -29 -32 -45 -51 -17 -19 -59
-65 -94 -103 -34 -38 -104 -124 -155 -190 -145 -187 -160 -195 -103 -49 23 58
46 97 82 135 76 83 208 228 228 252 10 11 30 35 46 51 15 17 49 55 77 85 99
112 184 207 221 247 21 23 70 77 108 120 102 115 185 180 154 121z m-1293
-1436 c-50 -100 -162 -234 -405 -488 -109 -114 -127 -134 -246 -269 -38 -44
-72 -82 -76 -85 -4 -4 -236 -266 -350 -395 -14 -16 -48 -55 -75 -85 -27 -31
-65 -75 -86 -98 -29 -34 -41 -42 -62 -38 -56 10 -58 18 -13 66 23 25 71 79
107 120 36 41 70 80 75 86 6 6 42 46 80 89 39 43 77 86 85 95 8 9 49 54 90
101 41 46 79 89 85 95 5 6 42 46 80 89 39 43 84 93 100 111 32 33 133 147 219
244 104 118 192 216 221 247 17 17 66 70 110 118 63 68 81 82 83 66 2 -10 -8
-42 -22 -69z m-2572 -2935 c-17 -17 -73 -79 -125 -137 -51 -58 -106 -118 -120
-135 -15 -16 -36 -40 -46 -51 -17 -20 -169 -188 -203 -224 -8 -9 -55 -61 -105
-116 -49 -54 -115 -126 -146 -159 -31 -33 -81 -86 -110 -119 -121 -132 -333
-358 -460 -490 l-96 -100 -36 23 c-21 12 -37 26 -37 30 0 4 82 91 183 192 161
164 445 459 522 544 15 17 68 75 118 129 51 54 103 111 117 126 14 15 63 69
110 121 47 51 108 118 135 149 28 30 55 59 60 66 156 173 153 171 207 181 29
5 55 8 57 6 3 -2 -9 -18 -25 -36z m-260 -49 c-16 -17 -38 -41 -49 -53 -11 -12
-54 -59 -95 -105 -41 -46 -88 -97 -105 -115 -16 -18 -70 -77 -120 -131 -49
-53 -99 -107 -110 -119 -11 -11 -47 -50 -80 -86 -123 -132 -322 -343 -370
-394 -27 -28 -120 -124 -205 -213 -85 -89 -157 -162 -161 -162 -4 0 -71 46
-150 103 -79 56 -180 128 -224 160 l-80 57 0 90 c0 108 -19 86 227 253 230
156 339 224 588 368 207 119 573 275 790 337 178 51 183 52 144 10z m-824
-127 c0 -5 -12 -14 -27 -20 -16 -5 -50 -23 -78 -39 -52 -30 -357 -200 -480
-267 -38 -22 -128 -71 -200 -111 -71 -40 -131 -69 -133 -65 -12 33 72 133 158
190 86 56 90 58 180 102 116 56 257 112 430 170 166 56 150 52 150 40z m-250
-3261 c39 -38 47 -58 44 -115 -3 -59 -6 -62 -210 -216 -321 -241 -686 -439
-1122 -607 -117 -46 -117 -48 9 83 48 50 104 108 125 130 20 22 118 125 218
230 230 241 301 316 549 579 67 71 132 140 145 153 l23 23 95 -116 c53 -64
108 -129 124 -144z m-879 -2400 c1 -5 1 -21 1 -35 0 -14 0 -42 -1 -63 l-1 -37
-177 -59 c-98 -32 -182 -60 -188 -62 -9 -3 -65 65 -65 79 0 2 24 15 53 27 28
12 75 33 104 46 28 13 54 24 57 24 5 0 80 33 161 70 47 22 55 23 56 10z"/>
<path d="M15220 22061 c-109 -114 -244 -291 -364 -476 -263 -407 -311 -486
-333 -545 -38 -99 -199 -416 -244 -482 -11 -14 -19 -29 -19 -32 0 -7 -191
-324 -231 -384 -16 -24 -29 -45 -29 -47 0 -3 -26 -42 -59 -87 -163 -231 -227
-401 -200 -530 23 -109 42 -167 53 -161 15 10 86 15 86 7 0 -4 -8 -16 -17 -26
-22 -25 -22 -103 0 -145 26 -49 60 -63 192 -78 28 -4 77 -20 110 -36 33 -16
71 -29 83 -29 l23 0 -20 -29 c-22 -30 -27 -51 -13 -51 5 0 16 16 25 35 11 22
22 33 31 29 11 -4 11 -13 -5 -53 -10 -27 -16 -51 -12 -54 9 -9 56 13 70 32 13
19 53 35 53 21 0 -4 -16 -17 -35 -29 -39 -22 -42 -32 -20 -51 11 -9 19 -9 28
-2 10 9 13 1 14 -35 2 -62 35 -96 93 -96 l41 0 -38 -40 c-31 -32 -33 -37 -13
-27 23 12 24 12 11 -3 -11 -14 -11 -17 0 -18 8 0 30 -3 49 -6 51 -8 89 -8 145
0 109 15 97 7 211 147 76 95 135 173 207 277 l58 82 -31 16 c-45 23 -40 52 14
75 24 11 49 27 57 36 11 14 10 19 -9 34 l-22 18 63 33 c67 34 67 34 123 168
31 74 33 86 20 93 -23 13 -20 31 14 69 47 52 52 65 34 84 -15 15 -15 18 5 39
12 13 24 41 27 62 2 22 9 64 14 94 5 30 12 73 15 95 3 22 8 51 11 65 2 14 7
43 9 64 3 22 8 53 11 70 3 17 7 42 9 56 8 58 16 106 20 120 2 8 7 35 10 60 4
24 9 49 13 54 3 6 5 61 4 123 -3 138 4 157 98 254 l66 69 -41 44 c-27 27 -54
72 -74 122 -33 78 -87 174 -100 174 -3 1 -16 9 -29 20 l-22 19 25 37 c14 20
25 46 25 56 0 11 -34 56 -75 100 -86 91 -143 195 -149 272 -6 65 4 86 58 127
68 51 60 75 -29 86 -22 3 -49 10 -60 17 -16 10 -23 9 -35 -3z"/>
<path d="M7524 21645 c-39 -33 -102 -54 -219 -70 -71 -10 -137 -39 -164 -72
-25 -31 -25 -31 -39 -11 -22 30 -101 78 -120 71 -10 -3 -28 -15 -42 -27 -123
-105 -245 -143 -387 -123 -45 7 -57 13 -86 50 -19 23 -40 52 -46 64 -14 28
-43 44 -59 34 -7 -4 -17 -33 -22 -65 -5 -32 -14 -64 -20 -71 -9 -10 -5 -22 17
-47 45 -53 322 -327 402 -398 40 -36 78 -70 85 -75 6 -6 76 -67 156 -135 80
-69 161 -139 180 -157 19 -17 46 -41 60 -53 14 -12 61 -54 104 -93 44 -40 102
-85 130 -101 206 -118 739 -576 1147 -986 271 -274 405 -366 557 -386 26 -3
73 -9 104 -13 32 -4 62 -5 67 -2 5 4 8 25 6 49 -3 46 6 60 25 36 21 -24 68
-55 92 -60 92 -18 136 -3 164 54 10 21 19 39 19 42 22 88 44 137 82 181 23 28
43 60 43 72 0 19 6 16 40 -22 22 -24 40 -37 40 -29 0 8 -13 27 -30 43 -26 25
-40 55 -25 55 8 0 100 -65 103 -73 5 -11 22 2 22 18 0 7 -14 36 -31 63 -17 28
-29 58 -26 69 3 13 8 8 21 -22 26 -62 32 -70 52 -70 14 0 19 7 17 26 -1 27 -1
27 29 11 83 -41 165 3 145 78 -8 32 8 23 31 -18 11 -21 31 -47 44 -58 l22 -19
-19 30 c-16 25 -16 28 -2 16 21 -16 19 -18 42 39 14 35 18 70 17 153 -1 102
-3 110 -31 150 -35 51 -254 310 -327 387 -187 198 -184 196 -197 180 -7 -8
-20 -21 -30 -29 -25 -20 -51 7 -73 75 -9 29 -25 61 -35 70 -18 16 -20 16 -38
0 -22 -20 -19 -23 -60 74 -32 79 -44 89 -268 253 -8 6 -19 5 -28 -3 -22 -18
-51 0 -94 56 -42 55 -67 70 -87 53 -15 -12 -17 -11 -54 42 -3 4 -36 22 -75 39
-62 29 -101 47 -229 105 -455 206 -609 269 -705 291 -114 26 -170 54 -216 106
-24 26 -115 133 -145 171 -4 4 -20 -4 -36 -18z"/>
<path d="M25868 18295 c-2 -1 -43 -5 -93 -9 -289 -20 -488 -135 -642 -370 -27
-40 -82 -140 -123 -222 -41 -82 -77 -151 -81 -154 -3 -3 -18 -30 -33 -60 -89
-172 -250 -359 -391 -451 -105 -69 -298 -154 -395 -174 -8 -2 -35 -8 -60 -14
-55 -12 -87 -18 -170 -31 -93 -15 -109 -18 -170 -25 -30 -4 -66 -8 -80 -10
-14 -2 -63 -7 -110 -11 -47 -3 -101 -8 -120 -9 -308 -27 -1140 -27 -1495 0
-27 2 -86 6 -130 9 -44 3 -108 8 -141 12 l-61 5 -43 -53 c-97 -122 -130 -227
-125 -403 2 -66 6 -133 10 -150 3 -16 13 -64 21 -105 54 -265 200 -631 360
-897 15 -27 29 -35 74 -45 60 -13 256 -17 305 -6 17 4 59 14 95 22 136 31 197
44 250 51 30 4 64 10 75 12 32 8 1195 12 1195 4 0 -4 -9 -25 -19 -47 -10 -21
-78 -178 -150 -349 -73 -170 -139 -326 -147 -345 -201 -463 -632 -1573 -811
-2090 -94 -271 -174 -529 -187 -606 -3 -16 -10 -45 -16 -64 -28 -95 -3 -231
59 -332 23 -36 30 -62 35 -125 4 -43 8 -89 10 -103 2 -14 7 -70 11 -125 3 -55
8 -109 10 -120 2 -11 7 -47 10 -80 16 -153 64 -302 125 -388 35 -49 115 -113
163 -130 16 -6 15 -11 -8 -73 -14 -36 -25 -68 -25 -69 0 -6 216 -44 285 -51
28 -2 66 -7 85 -10 55 -8 371 -13 415 -5 29 4 41 12 43 26 8 46 96 366 157
573 73 247 232 731 349 1061 42 117 74 217 71 221 -7 11 -65 10 -106 -1 -34
-9 -92 -60 -116 -104 -9 -16 -13 -16 -57 10 -25 15 -46 33 -46 40 0 11 17 56
55 140 7 17 27 64 43 105 37 93 109 261 153 355 31 68 32 69 40 41 5 -17 9
-71 9 -120 2 -125 15 -165 58 -183 33 -14 36 -13 64 13 38 37 65 98 127 279
52 153 57 194 36 295 -3 14 -7 36 -10 50 -2 14 -15 56 -28 95 l-24 69 19 71
c10 38 21 81 23 95 28 155 82 283 133 317 55 36 62 25 59 -89 -2 -98 -2 -100
26 -124 15 -13 35 -24 44 -24 27 0 81 48 118 105 31 49 78 133 80 145 1 3 9
23 19 45 55 124 156 420 156 459 0 8 -12 19 -27 25 -16 6 -38 20 -51 29 l-23
18 82 84 c46 47 100 111 120 143 39 60 43 70 104 247 20 58 42 119 49 135 7
17 28 68 46 115 19 47 54 126 79 175 140 273 280 383 539 424 56 9 67 15 113
62 59 58 136 99 192 99 l37 0 0 -70 0 -70 91 0 c75 0 99 4 145 25 30 14 58 25
63 25 5 0 22 7 37 15 16 8 36 15 45 15 9 0 19 3 23 7 4 4 24 13 44 19 20 7 82
26 137 44 55 17 107 33 115 35 8 2 53 13 100 25 47 12 98 24 113 26 15 2 54
10 85 18 31 8 98 22 147 30 50 9 99 18 111 20 12 2 45 7 75 11 30 3 61 8 69
10 8 2 35 6 60 9 25 3 65 8 90 11 25 3 65 8 90 10 25 2 59 6 75 9 17 2 68 7
115 11 47 4 101 8 120 10 19 2 73 7 120 10 47 3 105 8 130 10 25 3 83 7 130
10 47 3 101 8 120 10 19 2 69 6 110 10 41 3 91 8 110 10 19 3 60 7 90 10 30 3
113 15 184 25 71 11 133 20 137 20 4 0 2 19 -4 43 -39 132 38 182 192 125 46
-17 56 -26 69 -59 8 -22 18 -39 23 -39 14 0 179 72 184 81 3 5 -13 48 -35 96
-116 246 -114 460 4 585 14 15 26 32 26 38 0 7 -18 47 -39 91 -148 298 -418
500 -878 656 -196 66 -252 72 -419 39 -12 -2 -39 -7 -60 -10 -22 -3 -50 -8
-64 -11 -14 -2 -41 -7 -60 -9 -19 -3 -46 -8 -60 -11 -13 -2 -42 -7 -65 -11
-22 -3 -58 -9 -80 -14 -22 -5 -56 -12 -75 -15 -19 -3 -84 -15 -145 -27 -60
-11 -119 -22 -130 -24 -21 -4 -223 -45 -240 -49 -5 -1 -28 -5 -50 -10 -22 -4
-123 -25 -225 -46 -102 -22 -196 -42 -210 -44 -14 -3 -38 -7 -55 -10 -16 -3
-46 -10 -65 -15 -19 -5 -50 -12 -68 -15 -18 -3 -65 -12 -105 -21 -39 -8 -82
-18 -95 -20 -13 -3 -76 -16 -140 -30 -64 -14 -127 -28 -138 -30 -19 -4 -49 52
-290 535 -242 485 -286 563 -306 546z m-973 -4437 c4 -10 -16 -66 -43 -128
l-49 -110 -36 43 -36 44 36 64 c19 35 46 84 60 108 l26 44 18 -24 c10 -13 21
-32 24 -41z"/>
<path d="M8983 17900 c-43 -32 -71 -67 -97 -125 -10 -22 -20 -41 -21 -43 -2
-2 -42 13 -89 34 -48 20 -88 35 -90 33 -1 -2 -28 -47 -58 -99 -181 -310 -318
-573 -422 -805 -37 -82 -71 -159 -76 -170 -23 -50 -101 -261 -138 -375 -57
-175 -107 -382 -127 -520 -4 -24 -8 -47 -10 -50 -1 -3 -6 -41 -10 -85 -3 -44
-8 -100 -11 -125 -5 -53 -5 -302 0 -345 2 -16 7 -57 11 -90 20 -179 77 -388
150 -558 52 -122 64 -144 139 -269 l58 -98 41 -1 c23 -1 58 0 77 0 38 2 15 24
671 -624 210 -207 253 -245 289 -255 49 -13 84 -3 120 35 l22 23 81 -38 c98
-45 335 -126 382 -131 2 0 19 -5 37 -10 18 -5 44 -12 58 -14 14 -2 41 -6 60
-10 108 -20 245 -33 380 -35 37 -1 52 -7 88 -39 l43 -37 -61 -160 c-33 -87
-64 -168 -69 -179 -11 -23 -23 -56 -27 -70 -3 -14 -147 -351 -180 -422 -14
-32 -43 -96 -64 -143 -21 -47 -59 -130 -85 -185 -26 -55 -67 -140 -90 -190
-43 -92 -111 -233 -250 -520 -126 -260 -212 -443 -282 -600 -25 -55 -54 -119
-64 -142 -10 -23 -19 -44 -19 -48 0 -3 -11 -28 -25 -57 -14 -28 -25 -55 -25
-60 0 -5 -9 -27 -20 -51 -30 -65 -146 -385 -154 -422 -1 -5 -14 -48 -29 -95
-14 -47 -28 -96 -31 -110 -2 -14 -7 -32 -10 -40 -3 -8 -8 -26 -10 -40 -3 -14
-7 -34 -10 -45 -2 -11 -9 -38 -14 -61 -5 -22 -8 -55 -6 -73 8 -70 110 -231
147 -231 11 0 40 -9 63 -21 48 -23 87 -86 93 -152 2 -15 162 -125 247 -169 77
-40 208 -93 254 -103 8 -2 44 -10 80 -19 36 -8 88 -18 115 -22 28 -3 59 -8 70
-10 34 -7 258 -6 310 1 77 11 205 44 229 61 17 10 23 25 24 57 2 41 8 95 17
147 2 14 7 50 10 80 3 30 8 62 10 70 2 8 7 31 10 50 3 19 10 51 15 70 5 19 12
51 15 70 5 32 3 36 -27 49 -66 29 -194 91 -200 96 -3 3 1 34 8 69 7 35 15 74
18 87 40 220 169 558 286 754 23 39 49 82 59 97 9 16 19 28 23 28 4 0 39 -43
79 -96 40 -52 75 -91 79 -87 4 4 16 24 28 43 l20 35 -50 127 -51 128 48 42
c62 56 157 122 212 149 39 19 48 31 94 122 53 106 90 174 140 259 16 27 29 51
29 53 0 2 18 31 41 65 l41 62 -34 51 c-94 143 -98 260 -10 370 38 47 127 127
142 127 5 0 26 -17 48 -37 22 -21 60 -57 84 -80 l45 -42 45 47 46 47 -25 25
c-39 41 -95 129 -108 174 -23 76 -12 130 52 255 32 62 63 114 68 114 6 0 20
-17 32 -38 17 -30 21 -53 20 -103 -2 -63 -1 -65 33 -91 52 -40 90 -62 91 -54
0 5 2 16 4 27 2 10 6 64 10 120 8 126 27 221 56 277 12 24 67 105 122 179 113
151 108 144 140 185 40 50 142 206 174 265 73 136 126 296 139 423 9 83 10 87
15 90 2 1 24 -16 48 -38 100 -93 114 -105 122 -105 5 0 9 5 9 11 0 12 14 46
73 169 22 47 43 87 46 90 3 3 15 21 25 40 57 105 308 441 423 566 15 17 57 64
93 104 73 83 86 97 248 269 204 216 222 236 222 244 0 4 -38 26 -85 49 -84 40
-84 41 -71 67 7 14 38 78 69 141 96 197 168 274 292 312 72 22 204 29 292 15
l42 -7 68 83 c116 142 136 167 173 220 19 29 38 54 41 57 11 9 118 180 167
265 27 47 103 203 126 259 15 37 15 46 0 120 -19 97 -82 307 -95 320 -5 6 -9
16 -9 24 0 19 -89 196 -133 265 -28 43 -43 57 -62 58 -14 1 -28 2 -32 3 -5 1
-24 6 -43 10 -45 11 -111 44 -128 65 -21 26 -34 64 -36 107 -2 23 -6 46 -9 51
-4 6 -39 21 -79 34 -57 19 -94 24 -173 24 -55 0 -116 -3 -135 -7 -104 -21
-246 -88 -361 -171 l-77 -54 -31 19 c-50 32 -111 46 -158 36 -54 -11 -108 -65
-188 -183 -33 -50 -136 -200 -230 -335 -94 -135 -178 -257 -188 -272 -10 -16
-21 -28 -25 -28 -4 1 -26 34 -50 75 -24 41 -47 75 -50 75 -4 -1 -77 -100 -162
-221 -85 -120 -161 -227 -168 -237 -6 -9 -46 -64 -87 -122 -41 -58 -81 -114
-89 -125 -8 -11 -115 -162 -238 -335 -123 -173 -244 -343 -268 -377 -25 -34
-108 -151 -185 -259 -275 -389 -418 -541 -659 -703 -178 -119 -432 -236 -605
-276 -227 -55 -355 -69 -579 -68 -188 2 -163 -11 -259 132 -148 222 -216 447
-214 706 0 96 7 202 16 255 3 14 7 48 11 75 3 28 7 54 8 59 0 6 43 43 93 84
54 42 95 82 97 95 3 12 14 76 27 142 19 105 81 323 108 380 6 11 32 70 60 130
27 61 91 193 143 295 167 331 241 518 282 715 24 116 25 122 12 146 -22 43
-67 122 -129 228 l-60 104 -76 34 c-93 43 -506 214 -656 272 -60 24 -119 47
-130 51 -44 18 -128 42 -160 45 -24 2 -44 -4 -72 -25z m1553 -8676 c72 -32 70
-29 57 -57 -6 -12 -21 -51 -34 -87 -12 -36 -25 -69 -29 -73 -6 -7 -79 22 -97
38 -2 1 1 26 7 56 17 96 19 104 19 127 1 28 6 28 77 -4z"/>
<path d="M4917 17734 c-1 -1 -58 -4 -127 -8 -69 -3 -136 -8 -150 -10 -14 -3
-61 -7 -104 -11 -43 -4 -86 -8 -95 -10 -9 -1 -37 -5 -62 -9 -72 -10 -101 -16
-149 -26 -25 -5 -56 -12 -70 -14 -52 -9 -198 -49 -298 -82 -201 -68 -430 -176
-662 -313 -52 -31 -103 -60 -112 -66 -188 -111 -216 -137 -253 -238 -14 -40
-34 -82 -44 -94 -10 -12 -65 -47 -122 -78 -362 -197 -647 -412 -960 -725 -257
-257 -503 -553 -689 -830 -24 -36 -46 -67 -50 -70 -12 -9 -247 -384 -329 -525
-45 -77 -86 -147 -91 -155 -6 -8 -13 -21 -17 -29 -4 -8 -40 -74 -81 -145 -41
-72 -90 -160 -110 -196 -19 -36 -60 -100 -90 -144 l-54 -78 46 -74 c25 -41 46
-83 46 -93 0 -9 -12 -51 -26 -92 -14 -41 -28 -81 -30 -89 -2 -8 -20 -71 -39
-140 -78 -274 -109 -475 -109 -705 0 -147 13 -309 29 -365 2 -8 7 -29 10 -46
5 -34 46 -177 68 -239 l14 -40 79 -5 78 -5 34 -65 c178 -347 453 -649 724
-798 134 -73 356 -153 488 -176 19 -3 46 -9 60 -12 14 -3 39 -7 55 -9 17 -3
44 -7 60 -9 17 -3 55 -7 85 -10 30 -3 78 -9 105 -12 28 -3 147 -7 266 -9 192
-3 219 -2 236 13 94 84 308 192 458 231 87 22 187 29 250 16 48 -10 118 -44
147 -72 l28 -27 72 23 c40 13 90 29 111 37 20 8 39 14 41 14 11 0 -8 -284 -24
-355 -21 -92 -33 -111 -154 -225 -84 -79 -115 -131 -224 -375 -39 -88 -85
-191 -103 -230 -18 -38 -33 -72 -34 -75 -3 -11 -25 -59 -64 -143 -23 -49 -41
-90 -41 -92 0 -2 -16 -38 -35 -79 -19 -42 -35 -78 -35 -80 0 -3 -18 -44 -41
-93 -22 -48 -50 -108 -61 -133 -11 -25 -33 -72 -48 -105 -15 -33 -51 -112 -80
-175 -29 -63 -73 -158 -97 -210 -63 -133 -103 -220 -100 -221 1 -1 49 -2 106
-3 102 -2 103 -2 113 24 76 192 158 299 270 350 35 15 65 27 66 25 2 -2 -19
-43 -47 -90 -28 -48 -51 -88 -51 -90 0 -2 -31 -57 -68 -122 -38 -65 -85 -148
-105 -184 l-37 -66 19 -56 c99 -288 315 -478 581 -514 72 -9 256 -2 303 13 15
5 17 -3 17 -78 l0 -83 129 2 c71 1 147 6 169 12 73 20 160 102 228 216 33 56
124 241 124 254 0 4 11 28 23 52 49 91 61 162 45 271 -22 154 -18 176 58 318
210 387 394 814 673 1565 62 165 116 309 121 320 5 11 20 52 34 90 40 112 120
320 169 443 25 61 43 112 40 112 -3 0 -35 -14 -72 -31 l-66 -31 -114 -301
c-62 -166 -140 -365 -173 -442 -69 -162 -167 -365 -177 -365 -3 0 -16 17 -28
38 -19 34 -20 42 -8 68 28 64 44 103 84 209 23 61 48 124 55 140 7 17 39 102
71 190 31 88 61 169 66 180 6 15 134 390 160 472 2 6 65 62 139 124 74 62 171
144 215 183 44 39 86 75 92 81 17 13 54 48 197 180 154 142 364 346 582 563
160 160 173 176 167 200 -15 52 -4 139 36 297 46 183 50 205 52 266 3 84 -29
135 -91 145 l-36 6 -12 82 c-42 290 -179 457 -493 600 l-77 34 -153 -185
c-142 -170 -154 -182 -157 -156 -6 56 70 213 161 336 55 75 55 70 -13 107 -19
10 -53 35 -75 54 l-40 34 -59 -62 c-74 -77 -275 -302 -341 -381 -27 -33 -55
-65 -61 -71 -5 -6 -26 -31 -45 -54 -18 -24 -57 -70 -84 -104 -168 -203 -370
-478 -567 -771 -178 -266 -212 -307 -346 -425 -110 -96 -271 -159 -604 -236
-102 -23 -338 -67 -483 -90 -16 -2 -41 -6 -55 -9 -14 -2 -50 -7 -80 -10 -30
-3 -66 -8 -80 -10 -14 -2 -47 -7 -75 -9 -66 -7 -150 -15 -205 -20 -308 -30
-813 -27 -1024 5 -39 6 -79 11 -88 11 -11 0 -19 10 -24 30 -7 36 -8 298 0 325
2 10 8 43 11 73 3 30 8 69 11 85 12 70 82 320 104 370 5 11 24 56 41 100 275
676 933 1446 1774 2073 112 83 458 318 560 379 365 219 729 391 1040 493 68
22 132 41 142 43 10 2 36 9 58 15 38 11 62 16 123 27 15 3 37 7 49 10 50 11
164 20 268 20 94 0 123 -4 200 -29 79 -26 153 -59 234 -107 35 -20 36 -21 133
-99 49 -38 93 -70 99 -70 24 0 68 43 89 85 l22 46 -40 52 c-48 62 -111 116
-170 146 l-43 22 68 70 c105 108 145 182 167 305 5 30 1 35 -67 85 -143 107
-210 188 -367 444 -95 155 -176 267 -232 321 -99 95 -236 177 -393 235 -89 32
-92 33 -273 34 -101 0 -184 0 -185 -1z m1154 -3747 c21 -16 79 -97 79 -111 0
-15 -140 -123 -226 -174 -71 -42 -182 -87 -191 -78 -4 4 160 235 242 340 26
33 69 44 96 23z m-4707 -1374 c-16 -337 -20 -392 -28 -400 -10 -11 -80 51 -99
88 -27 52 -18 134 26 222 34 69 85 146 98 147 3 0 5 -26 3 -57z"/>
<path d="M20675 15916 c-16 -12 -85 -59 -153 -104 -86 -60 -120 -88 -115 -97
5 -7 29 -29 54 -49 l47 -35 77 65 c86 74 112 110 121 170 9 65 4 74 -31 50z"/>
<path d="M14409 15490 c-46 -13 -104 -49 -151 -95 -27 -25 -48 -49 -48 -54 0
-4 16 -40 37 -80 l36 -73 42 44 c23 24 65 70 95 103 29 33 68 76 86 96 32 36
32 37 11 47 -29 14 -78 19 -108 12z"/>
<path d="M11630 11193 c-67 -117 -80 -142 -80 -147 0 -7 58 -18 96 -18 41 0
96 33 125 74 l22 31 -45 41 c-94 87 -81 85 -118 19z"/>
<path d="M10887 9875 c-123 -64 -209 -204 -208 -338 0 -64 27 -134 60 -154 18
-11 22 -6 54 90 19 56 58 167 86 247 64 182 64 185 8 155z"/>
</g>
</svg>
